<svg id="_3d-icon" data-name="3d-icon" xmlns="http://www.w3.org/2000/svg" width="19.488" height="12.399" viewBox="0 0 19.488 12.399">
  <path id="Path_14490" data-name="Path 14490" d="M805.171,612.44v1.529l-3.8,3.177v.208h.434a3.353,3.353,0,0,1,3.525,3.526c0,2.361-1.841,3.959-4.376,3.959-2.778,0-4.515-1.615-4.515-4.151v-.538h1.719v.521a2.508,2.508,0,0,0,2.8,2.639,2.43,2.43,0,0,0,2.657-2.448c0-1.493-1.094-2.223-2.518-2.223h-1.841v-1.58L802.861,614h-6.13V612.44Z" transform="translate(-796.436 -612.44)" fill="#333"/>
  <path id="Path_14491" data-name="Path 14491" d="M810.905,612.44c3.212,0,5.019,1.615,5.019,4.949v2.258c0,3.334-1.807,4.949-5.019,4.949h-3.82V612.44Zm-2.1,10.61h2.119c2.205,0,3.281-1.111,3.281-3.351v-2.362c0-2.257-1.111-3.351-3.281-3.351H808.8Z" transform="translate(-796.436 -612.44)" fill="#333"/>
</svg>
