<svg id="filter-icon" xmlns="http://www.w3.org/2000/svg" width="25.975" height="27.627" viewBox="0 0 25.975 27.627">
  <path id="Union_12" data-name="Union 12" d="M-5996.17,4.526h-2.93a.9.9,0,0,1-.9-.9.9.9,0,0,1,.9-.9h2.929a4,4,0,0,1,3.9-3.1,4,4,0,0,1,3.9,3.1h13.449a.9.9,0,0,1,.9.9.9.9,0,0,1-.9.9h-13.449a4,4,0,0,1-3.9,3.1A4,4,0,0,1-5996.17,4.526Zm1.7-.9a2.2,2.2,0,0,0,2.2,2.2,2.2,2.2,0,0,0,2.2-2.2,2.2,2.2,0,0,0-2.2-2.2A2.2,2.2,0,0,0-5994.472,3.626Z" transform="translate(6000 0.373)" fill="#333"/>
  <path id="Union_13" data-name="Union 13" d="M-5986.17,4.526H-5999.1a.9.9,0,0,1-.9-.9.9.9,0,0,1,.9-.9h12.93a4,4,0,0,1,3.9-3.1,4,4,0,0,1,3.9,3.1h3.449a.9.9,0,0,1,.9.9.9.9,0,0,1-.9.9h-3.449a4,4,0,0,1-3.9,3.1A4,4,0,0,1-5986.17,4.526Zm1.7-.9a2.2,2.2,0,0,0,2.2,2.2,2.2,2.2,0,0,0,2.2-2.2,2.2,2.2,0,0,0-2.2-2.2A2.2,2.2,0,0,0-5984.472,3.627Z" transform="translate(6000 10)" fill="#333"/>
  <path id="Union_14" data-name="Union 14" d="M-5991.169,4.526h-7.93a.9.9,0,0,1-.9-.9.9.9,0,0,1,.9-.9h7.93a4,4,0,0,1,3.9-3.1,4,4,0,0,1,3.9,3.1h8.448a.9.9,0,0,1,.9.9.9.9,0,0,1-.9.9h-8.448a4,4,0,0,1-3.9,3.1A4,4,0,0,1-5991.169,4.526Zm1.7-.9a2.2,2.2,0,0,0,2.2,2.2,2.2,2.2,0,0,0,2.2-2.2,2.2,2.2,0,0,0-2.2-2.2A2.2,2.2,0,0,0-5989.472,3.627Z" transform="translate(6000 20)" fill="#333"/>
</svg>
