<svg id="full-screen-icon" xmlns="http://www.w3.org/2000/svg" width="20" height="20" viewBox="0 0 20 20">
  <path id="Path_14477" data-name="Path 14477" d="M902.788,616.1h2.5a.7.7,0,0,0,0-1.4H901.1a.7.7,0,0,0-.7.7v4.186a.7.7,0,0,0,1.4,0v-2.5l4.343,4.343a.7.7,0,0,0,.986-.986Z" transform="translate(-900.407 -614.708)" fill="#333"/>
  <path id="Path_14478" data-name="Path 14478" d="M921.333,615.139a.7.7,0,0,0-.644-.431H916.5a.7.7,0,0,0,0,1.4H919l-4.343,4.343a.7.7,0,1,0,.987.986l4.343-4.343v2.5a.7.7,0,1,0,1.4,0v-4.186A.7.7,0,0,0,921.333,615.139Z" transform="translate(-901.387 -614.708)" fill="#333"/>
  <path id="Path_14479" data-name="Path 14479" d="M906.146,628.963l-4.343,4.343v-2.5a.7.7,0,0,0-1.4,0v4.186a.7.7,0,0,0,.7.7h4.186a.7.7,0,1,0,0-1.4h-2.5l4.343-4.343a.7.7,0,0,0-.986-.987Z" transform="translate(-900.407 -615.688)" fill="#333"/>
  <path id="Path_14480" data-name="Path 14480" d="M920.69,630.107a.7.7,0,0,0-.7.7v2.5l-4.343-4.343a.7.7,0,0,0-.987.987L919,634.293h-2.5a.7.7,0,1,0,0,1.4h4.186a.7.7,0,0,0,.7-.7V630.8A.7.7,0,0,0,920.69,630.107Z" transform="translate(-901.387 -615.688)" fill="#333"/>
  <circle id="Ellipse_677" data-name="Ellipse 677" cx="2.341" cy="2.341" r="2.341" transform="translate(7.659 7.659)" fill="#333"/>
</svg>
