<svg id="group-icon" xmlns="http://www.w3.org/2000/svg" width="47.59" height="27.461" viewBox="0 0 47.59 27.461">
  <path id="Path_14530" data-name="Path 14530" d="M893.638,330.994a5.557,5.557,0,1,0-5.558-5.556A5.563,5.563,0,0,0,893.638,330.994Z" transform="translate(-856.277 -319.88)" fill="#333"/>
  <path id="Path_14531" data-name="Path 14531" d="M893.637,332.711a10.78,10.78,0,0,0-6.97,2.66,9.619,9.619,0,0,1,1.07.73,11.886,11.886,0,0,1,4.47,8.49h11.66v-1C903.867,334.981,897.177,332.711,893.637,332.711Z" transform="translate(-856.277 -319.88)" fill="#333"/>
  <path id="Path_14532" data-name="Path 14532" d="M866.5,330.994a5.557,5.557,0,1,0-5.557-5.556A5.563,5.563,0,0,0,866.5,330.994Z" transform="translate(-856.277 -319.88)" fill="#333"/>
  <path id="Path_14533" data-name="Path 14533" d="M873.477,335.381a10.767,10.767,0,0,0-6.98-2.67c-3.53,0-10.22,2.27-10.22,10.88v1h11.66A11.839,11.839,0,0,1,873.477,335.381Z" transform="translate(-856.277 -319.88)" fill="#333"/>
  <path id="Path_14534" data-name="Path 14534" d="M880.069,333.75a5.557,5.557,0,1,0-5.557-5.557A5.563,5.563,0,0,0,880.069,333.75Z" transform="translate(-856.277 -319.88)" fill="#333"/>
  <path id="Path_14535" data-name="Path 14535" d="M880.067,335.461c-3.54,0-10.22,2.28-10.22,10.89v.99H890.3v-.99C890.3,337.741,883.607,335.461,880.067,335.461Z" transform="translate(-856.277 -319.88)" fill="#333"/>
</svg>
