<svg id="layers-fill-icon" xmlns="http://www.w3.org/2000/svg" width="30" height="30.002" viewBox="0 0 30 30.002">
  <path id="Path_14462" data-name="Path 14462" d="M859.125,341.564l-1.764.888a1.525,1.525,0,0,0-.859,1.36,1.5,1.5,0,0,0,.6,1.184l13.607,6.911a1.746,1.746,0,0,0,1.583,0L885.9,345a1.5,1.5,0,0,0,.6-1.184,1.524,1.524,0,0,0-.86-1.36l-1.764-.888-11.585,5.884a1.746,1.746,0,0,1-1.583,0Z" transform="translate(-856.502 -328.81)" fill="#fff"/>
  <path id="Path_14463" data-name="Path 14463" d="M885.642,349.175l-1.785-.9-11.564,5.873a1.746,1.746,0,0,1-1.583,0l-11.564-5.873-1.785.9a1.505,1.505,0,0,0,0,2.719l13.382,6.739a1.7,1.7,0,0,0,1.517,0l13.382-6.739a1.5,1.5,0,0,0,0-2.719Z" transform="translate(-856.502 -328.81)" fill="#fff"/>
  <path id="Path_14464" data-name="Path 14464" d="M857.225,338.356,870.71,345.2a1.752,1.752,0,0,0,1.583,0l13.485-6.849a1.505,1.505,0,0,0,.724-1.267,1.523,1.523,0,0,0-.86-1.36L872.26,328.99a1.69,1.69,0,0,0-1.518,0l-13.381,6.738a1.524,1.524,0,0,0-.859,1.36A1.507,1.507,0,0,0,857.225,338.356Z" transform="translate(-856.502 -328.81)" fill="#fff"/>
</svg>
