<svg id="location-icon" xmlns="http://www.w3.org/2000/svg" width="20" height="20" viewBox="0 0 20 20">
  <path id="Path_14472" data-name="Path 14472" d="M856.533,594.9a4.025,4.025,0,1,0,4.025,4.025A4.03,4.03,0,0,0,856.533,594.9Zm0,6.546a2.522,2.522,0,1,1,2.522-2.521A2.525,2.525,0,0,1,856.533,601.448Z" transform="translate(-846.533 -588.927)" fill="#fff"/>
  <path id="Path_14473" data-name="Path 14473" d="M865.794,598.188h-.909A8.385,8.385,0,0,0,857.3,590.6v-.909a.752.752,0,0,0-1.5,0v.909a8.385,8.385,0,0,0-7.588,7.588H847.3a.751.751,0,1,0,0,1.5h.909a8.386,8.386,0,0,0,7.588,7.588v.909a.752.752,0,0,0,1.5,0v-.909a8.386,8.386,0,0,0,7.588-7.588h.909a.751.751,0,1,0,0-1.5Zm-9.248,7.626a6.875,6.875,0,1,1,6.875-6.875A6.883,6.883,0,0,1,856.545,605.814Z" transform="translate(-846.545 -588.939)" fill="#fff"/>
</svg>
