<svg id="menu-icon" xmlns="http://www.w3.org/2000/svg" width="35.529" height="25.958" viewBox="0 0 35.529 25.958">
  <path id="Path_814" data-name="Path 814" d="M1826.26,54.535H1792.73a1,1,0,0,1,0-2h33.529a1,1,0,0,1,0,2Z" transform="translate(-1791.73 -52.535)" fill="#333"/>
  <path id="Path_815" data-name="Path 815" d="M1825.731,54.535h-7a1,1,0,0,1,0-2h7a1,1,0,0,1,0,2Zm-13,0h-7a1,1,0,0,1,0-2h7a1,1,0,0,1,0,2Zm-13,0h-7a1,1,0,0,1,0-2h7a1,1,0,0,1,0,2Z" transform="translate(-1791.73 -40.556)" fill="#333"/>
  <path id="Path_816" data-name="Path 816" d="M1826.26,54.535H1792.73a1,1,0,0,1,0-2h33.529a1,1,0,0,1,0,2Z" transform="translate(-1791.73 -28.577)" fill="#333"/>
</svg>
