<svg id="delete-icon" xmlns="http://www.w3.org/2000/svg" width="12.379" height="16" viewBox="0 0 12.379 16">
  <path id="Path_14466" data-name="Path 14466" d="M597.517,460.2h-10.76a.81.81,0,0,0-.81.81V463.1a.81.81,0,0,0,.81.81h.426v9.3a.815.815,0,0,0,.815.815h8.274a.815.815,0,0,0,.815-.815v-9.3h.429a.81.81,0,0,0,.81-.81V461A.81.81,0,0,0,597.517,460.2Zm-1.646,12.613H588.4v-8.89h7.471Zm1.238-10.116h-9.946v-1.28h9.946Z" transform="translate(-585.947 -458.024)" fill="#333"/>
  <path id="Path_14467" data-name="Path 14467" d="M589.4,458.7h6.607a.608.608,0,1,0,0-1.217H589.4a.608.608,0,1,0,0,1.217Z" transform="translate(-586.516 -457.482)" fill="#333"/>
  <path id="Path_14468" data-name="Path 14468" d="M591.536,472.457a.608.608,0,0,0,.608-.608v-4.385a.608.608,0,0,0-1.217,0v4.385A.608.608,0,0,0,591.536,472.457Z" transform="translate(-586.943 -459.357)" fill="#333"/>
  <path id="Path_14469" data-name="Path 14469" d="M595.529,472.457a.608.608,0,0,0,.608-.608v-4.385a.608.608,0,0,0-1.217,0v4.385A.608.608,0,0,0,595.529,472.457Z" transform="translate(-587.742 -459.357)" fill="#333"/>
</svg>
