<svg id="settings-icon" xmlns="http://www.w3.org/2000/svg" width="16" height="16" viewBox="0 0 16 16">
  <path id="Path_14442" data-name="Path 14442" d="M631.7,702.573a2.626,2.626,0,1,0,2.625,2.625A2.629,2.629,0,0,0,631.7,702.573Zm0,4.02a1.395,1.395,0,1,1,1.394-1.4A1.4,1.4,0,0,1,631.7,706.593Z" transform="translate(-623.638 -697.198)" fill="#333"/>
  <path id="Path_14443" data-name="Path 14443" d="M635.628,699.993h-.818a6.646,6.646,0,0,0-.622-1.487l.583-.583a.615.615,0,0,0,0-.87l-1.74-1.741a.615.615,0,0,0-.87,0l-.6.6a6.719,6.719,0,0,0-1.471-.6v-.86a.615.615,0,0,0-.615-.615h-2.462a.615.615,0,0,0-.615.615v.892a6.69,6.69,0,0,0-1.43.606l-.64-.64a.633.633,0,0,0-.87,0l-1.74,1.741a.615.615,0,0,0,0,.87l.656.656a6.663,6.663,0,0,0-.581,1.413h-.933a.615.615,0,0,0-.615.615v2.461a.615.615,0,0,0,.615.615h.934a6.676,6.676,0,0,0,.58,1.414l-.656.656a.615.615,0,0,0,0,.87l1.74,1.742a.617.617,0,0,0,.87,0l.64-.641a6.689,6.689,0,0,0,1.43.605v.892a.615.615,0,0,0,.615.615h2.462a.615.615,0,0,0,.615-.615v-.859a6.7,6.7,0,0,0,1.471-.6l.6.6a.617.617,0,0,0,.87,0l1.74-1.742a.615.615,0,0,0,0-.87l-.583-.583a6.662,6.662,0,0,0,.622-1.487h.818a.615.615,0,0,0,.615-.615v-2.461A.615.615,0,0,0,635.628,699.993Zm-.615,2.462h-.677c-.019,0-.034.009-.054.011a.567.567,0,0,0-.141.028.588.588,0,0,0-.2.116.575.575,0,0,0-.059.058.614.614,0,0,0-.118.2.574.574,0,0,0-.031.074,5.477,5.477,0,0,1-.827,1.978.72.72,0,0,0-.028.068.545.545,0,0,0-.039.1.608.608,0,0,0-.026.131.662.662,0,0,0,0,.1.612.612,0,0,0,.025.129.638.638,0,0,0,.039.1.592.592,0,0,0,.073.11.553.553,0,0,0,.033.05l.486.486-.87.87-.5-.5c-.015-.015-.036-.021-.052-.035a.589.589,0,0,0-.1-.066.613.613,0,0,0-.109-.046.625.625,0,0,0-.112-.021.562.562,0,0,0-.116,0,.551.551,0,0,0-.117.023.567.567,0,0,0-.107.042c-.019.01-.041.012-.06.024a5.488,5.488,0,0,1-1.966.8.516.516,0,0,0-.052.022.577.577,0,0,0-.127.052.561.561,0,0,0-.084.057.6.6,0,0,0-.091.09.579.579,0,0,0-.06.089.582.582,0,0,0-.071.229.585.585,0,0,0-.013.063v.728h-1.231v-.751c0-.017-.009-.031-.01-.048a.57.57,0,0,0-.028-.137.58.58,0,0,0-.038-.095.62.62,0,0,0-.07-.1.577.577,0,0,0-.078-.081.6.6,0,0,0-.1-.065.574.574,0,0,0-.116-.051.469.469,0,0,0-.05-.021,5.479,5.479,0,0,1-1.927-.817.516.516,0,0,0-.057-.024.612.612,0,0,0-.114-.047.569.569,0,0,0-.114-.022.6.6,0,0,0-.115,0,.57.57,0,0,0-.116.023.63.63,0,0,0-.106.043.571.571,0,0,0-.1.069c-.016.014-.036.019-.052.034l-.545.545-.87-.87.558-.557a.519.519,0,0,0,.033-.049.583.583,0,0,0,.068-.1.562.562,0,0,0,.067-.219.625.625,0,0,0,0-.121.55.55,0,0,0-.021-.107.607.607,0,0,0-.049-.122c-.009-.017-.01-.035-.02-.051a5.491,5.491,0,0,1-.785-1.906c0-.021-.018-.038-.024-.058a.617.617,0,0,0-.053-.127.66.66,0,0,0-.047-.069.583.583,0,0,0-.119-.117c-.013-.01-.026-.019-.041-.028a.6.6,0,0,0-.182-.075l-.029-.005a.6.6,0,0,0-.109-.022h-.8v-1.231h.795a.478.478,0,0,0,.284-.079.594.594,0,0,0,.129-.087.663.663,0,0,0,.052-.059.6.6,0,0,0,.079-.119,20.359,20.359,0,0,0,.059-.15,5.486,5.486,0,0,1,.786-1.914.59.59,0,0,0,.022-.055.557.557,0,0,0,.046-.113.569.569,0,0,0,.022-.115.549.549,0,0,0,0-.115.564.564,0,0,0-.022-.115.581.581,0,0,0-.045-.105.559.559,0,0,0-.068-.1c-.013-.015-.018-.034-.033-.049l-.557-.557.87-.871.547.547a.139.139,0,0,0,.012.008.588.588,0,0,0,.17.113.571.571,0,0,0,.055.021.625.625,0,0,0,.175.034c.021,0,.041,0,.062,0a.576.576,0,0,0,.161-.031.488.488,0,0,0,.079-.037.585.585,0,0,0,.063-.03,5.51,5.51,0,0,1,1.924-.817c.017,0,.03-.015.046-.02a.612.612,0,0,0,.129-.056.57.57,0,0,0,.082-.055.588.588,0,0,0,.092-.1.541.541,0,0,0,.057-.084.65.65,0,0,0,.07-.229.513.513,0,0,0,.012-.061v-.752h1.231v.729a.541.541,0,0,0,.014.069.58.58,0,0,0,.022.108.606.606,0,0,0,.05.119.661.661,0,0,0,.057.085.583.583,0,0,0,.092.091.59.59,0,0,0,.087.058.567.567,0,0,0,.121.05.507.507,0,0,0,.057.023,5.469,5.469,0,0,1,1.964.794.533.533,0,0,0,.06.028.523.523,0,0,0,.078.036.621.621,0,0,0,.153.03.573.573,0,0,0,.079,0,.6.6,0,0,0,.157-.031.649.649,0,0,0,.066-.025.61.61,0,0,0,.163-.109s.01,0,.014-.009l.5-.5.87.871-.488.488c-.012.013-.017.03-.029.044a.6.6,0,0,0-.079.119.615.615,0,0,0-.036.09.572.572,0,0,0-.025.129.594.594,0,0,0,0,.105.572.572,0,0,0,.023.12.626.626,0,0,0,.046.111.609.609,0,0,0,.024.058,5.471,5.471,0,0,1,.828,1.977.613.613,0,0,0,.026.066.557.557,0,0,0,.035.088.582.582,0,0,0,.074.11.665.665,0,0,0,.058.067.608.608,0,0,0,.118.079.592.592,0,0,0,.069.039.6.6,0,0,0,.223.045h.681Z" transform="translate(-620.243 -693.839)" fill="#333"/>
</svg>
