<svg id="share-icon" xmlns="http://www.w3.org/2000/svg" width="16.004" height="16" viewBox="0 0 16.004 16">
  <path id="Path_14470" data-name="Path 14470" d="M597.061,714.741a2.607,2.607,0,0,0-2.006.951l-6.2-3.1a2.573,2.573,0,0,0,.076-.6,2.626,2.626,0,0,0-.076-.6l6.2-3.1a2.661,2.661,0,1,0-.542-1.07l-6.2,3.1a2.625,2.625,0,1,0,0,3.346l6.2,3.1a2.621,2.621,0,1,0,2.548-2.022Zm0-9.552a1.424,1.424,0,1,1-1.424,1.424A1.425,1.425,0,0,1,597.061,705.189Zm-10.756,8.227a1.424,1.424,0,1,1,1.424-1.425A1.426,1.426,0,0,1,586.305,713.416Zm10.756,5.373a1.424,1.424,0,1,1,1.424-1.424A1.426,1.426,0,0,1,597.061,718.789Z" transform="translate(-583.681 -703.989)" fill="#333"/>
</svg>
