<svg xmlns="http://www.w3.org/2000/svg" width="261" height="90.092" viewBox="0 0 261 90.092">
  <g id="tMaps-logo" transform="translate(0 0)">
    <g id="Logo-header_footer" data-name="Logo-header&amp;footer">
      <path id="Path_1" data-name="Path 1" d="M5512.654,5383.076v-16.53h11.293v16.53h14.785v9.14h-14.785v29.157q0,3.082,2.875,3.082h10.368v9.239h-14.266a9.965,9.965,0,0,1-7.445-2.872,10.373,10.373,0,0,1-2.825-7.6v-31.007H5499v-9.14Z" transform="translate(-5498.999 -5360.181)" fill="#190AFF"/>
      <path id="Path_1-2" data-name="Path 1" d="M5512.654,5383.076v-16.53h11.293v16.53h14.785v9.14h-14.785v29.157q0,3.082,2.875,3.082h10.368v9.239h-14.266a9.965,9.965,0,0,1-7.445-2.872,10.373,10.373,0,0,1-2.825-7.6v-31.007H5499v-9.14Z" transform="translate(-5498.999 -5360.181)" fill="#190AFF"/>
      <path id="Path_3" data-name="Path 3" d="M5516.827,5366.724a8.952,8.952,0,0,1,6.481-2.607,9.1,9.1,0,0,1,6.554,2.5,8.614,8.614,0,0,1,2.6,6.517,8.691,8.691,0,0,1-4.647,7.893,9.443,9.443,0,0,1-4.51,1.128,8.991,8.991,0,0,1-4.509-1.2,9.222,9.222,0,0,1-3.383-3.275,8.915,8.915,0,0,1,1.41-10.96Zm2.431,10.5a6.061,6.061,0,0,0,8.1,0,6.066,6.066,0,0,0,0-8.175,6.079,6.079,0,0,0-8.1,0,6.06,6.06,0,0,0,0,8.175Z" transform="translate(-5469.209 -5364.116)" fill="#190AFF"/>
    </g>
    <path id="Path_14312" data-name="Path 14312" d="M2.378-28.7V24.955h9.811V-18.276h.767L24.53,24.955H38.787L50.361-18.276h.767V24.955h9.811V-28.7H43.616L32.042,14.684h-.767L19.7-28.7ZM70.367-3.405,79.258-.416c.69-3.449,2.989-6.055,7.818-6.055,4.906,0,7.052,2.759,7.052,6.285V1.96H83.7c-8.585,0-14.717,4.062-14.717,11.881s6.132,12.187,13.95,12.187c7.052,0,9.581-3.833,10.271-5.519h1.073v4.446h9.2V.5c0-9.5-6.285-14.64-16.25-14.64C77.342-14.136,72.206-9.154,70.367-3.405Zm8.278,17.016c0-2.606,2.146-4.446,5.749-4.446h9.735v.613c0,5.059-3.833,8.432-9.2,8.432C80.791,18.21,78.645,16.294,78.645,13.611Zm34.109,26.674h9.658V20.05h.767c2.146,3.066,5.825,5.979,12.417,5.979,9.045,0,17.17-7.665,17.17-20.082s-8.125-20.082-17.17-20.082c-6.592,0-10.271,2.913-12.571,6.209h-.767v-5.136h-9.5ZM132.684,17.75c-5.979,0-10.424-4.292-10.424-11.8s4.446-11.8,10.424-11.8,10.424,4.292,10.424,11.8S138.662,17.75,132.684,17.75Zm26.9-20.159c0,7.512,6.285,10.271,14.257,11.8l1.993.383c4.752.92,6.9,2.07,6.9,4.522s-2.146,4.369-6.592,4.369-8.048-1.84-9.045-7.358l-8.891,2.3c1.3,7.972,7.972,12.417,17.936,12.417,9.658,0,15.943-4.522,15.943-12.494s-6.439-10.118-15.023-11.8l-1.993-.383c-3.986-.767-6.132-1.84-6.132-4.369,0-2.3,1.993-3.756,5.672-3.756s6.285,1.533,7.205,5.672l8.738-2.683c-1.84-6.132-7.435-10.348-15.943-10.348C165.567-14.136,159.588-9.921,159.588-2.409Z" transform="translate(68.913 49.807)" fill="#190AFF"/>
  </g>
</svg>
