<?xml version="1.0" encoding="utf-8"?>
<!-- Generator: Adobe Illustrator 21.0.0, SVG Export Plug-In . SVG Version: 6.00 Build 0)  -->
<svg version="1.1" id="Layer_1" xmlns="http://www.w3.org/2000/svg" xmlns:xlink="http://www.w3.org/1999/xlink" x="0px" y="0px"
	 viewBox="0 0 1530 582" style="enable-background:new 0 0 1530 582;" xml:space="preserve">
<style type="text/css">
	.st0{fill:#190AFF;}
	.st1{fill:#3E53A4;}
	.st2{fill:#020202;}
	.st3{fill:#FFFFFF;}
</style>
<g>
	<g>
		<path class="st0" d="M95.6,148.5V50.9h66.7v97.6h87.3v54h-87.3v172.2c0,12.1,5.7,18.2,17,18.2h61.2v54.6h-84.3
			c-18.2,0-32.8-5.7-44-17c-11.1-11.3-16.7-26.3-16.7-44.9V202.5H15v-54H95.6z"/>
	</g>
	<g>
		<path class="st0" d="M300.6,214.6c13.3-23.8,31.8-42.2,55.5-55.2c23.6-12.9,50.4-19.4,80.3-19.4c29.9,0,56.6,6.5,80,19.4
			c23.4,12.9,41.8,31.3,55.2,55.2c13.3,23.9,20,51.5,20,83.1c0,31.9-6.7,59.8-20,83.7c-13.3,23.9-31.7,42.2-55.2,55.2
			c-23.4,12.9-50.1,19.4-80,19.4c-29.9,0-56.7-6.5-80.3-19.4c-23.6-12.9-42.1-31.4-55.5-55.5c-13.3-24-20-51.8-20-83.4
			C280.6,266.1,287.2,238.5,300.6,214.6z M371.8,370.7c16.4,18,37.9,27,64.6,27c26.3,0,47.6-9,64-27c16.4-18,24.6-42.3,24.6-73.1
			c0-30.7-8.2-55-24.6-72.8c-16.4-17.8-37.7-26.7-64-26.7c-26.7,0-48.2,9-64.6,27c-16.4,18-24.6,42.1-24.6,72.4
			C347.2,328.4,355.4,352.7,371.8,370.7z"/>
	</g>
	<g>
		<path class="st0" d="M549,26.7c9.2-8.9,20.3-13.4,33.4-13.4c13.5,0,24.8,4.3,33.7,12.9c8.9,8.6,13.4,19.8,13.4,33.5
			c0,9.2-2.2,17.3-6.5,24.3c-4.4,7-10.2,12.5-17.4,16.3c-7.3,3.9-15,5.8-23.2,5.8c-8.2,0-15.9-2-23.2-6.2
			c-7.3-4.1-13.1-9.7-17.4-16.9c-4.4-7.1-6.5-14.9-6.5-23.4C535.2,46.7,539.8,35.7,549,26.7z M561.5,80.8c5.4,5.3,12.4,8,20.8,8
			c8.5,0,15.4-2.7,20.8-8c5.4-5.3,8.2-12.3,8.2-21c0-8.7-2.7-15.7-8.2-21c-5.4-5.3-12.4-8-20.8-8c-8.5,0-15.4,2.7-20.8,8
			c-5.4,5.3-8.2,12.3-8.2,21C553.3,68.4,556,75.4,561.5,80.8z"/>
	</g>
	<g>
		<path class="st0" d="M1170.5,13.3l-18.9,92.7h-12.4l3.9-92.7H1170.5z"/>
	</g>
	<g>
		<path class="st0" d="M1465.2,13.3l-18.9,92.7h-12.4l3.9-92.7H1465.2z M1515,13.3l-18.9,92.7h-12.7l3.9-92.7H1515z"/>
	</g>
	<g>
		<path class="st0" d="M720.1,148.5v43.7h6.1c23-34.8,57.6-52.1,103.7-52.1c24.6,0,47.4,6.5,68.2,19.4c20.8,12.9,37.5,31.3,50,55.2
			c12.5,23.9,18.8,51.5,18.8,83.1c0,31.5-6.3,59.3-18.8,83.4c-12.5,24.1-29.2,42.5-50,55.5c-20.8,12.9-43.6,19.4-68.2,19.4
			c-46.1,0-80.2-17-102.5-50.9h-6.1v163.7h-66.1V148.5H720.1z M875.3,371.3c16.6-18,24.9-42.5,24.9-73.7c0-31.1-8.3-55.7-24.9-73.7
			c-16.6-18-38.2-27-64.9-27c-26.3,0-47.8,9.1-64.6,27.3c-16.8,18.2-25.2,42.6-25.2,73.4c0,30.7,8.4,55.2,25.2,73.4
			c16.8,18.2,38.3,27.3,64.6,27.3C837.1,398.3,858.7,389.3,875.3,371.3z"/>
	</g>
	<g>
		<path class="st0" d="M1089.3,447.4h-66.1V148.5h66.1V447.4z"/>
	</g>
	<g>
		<path class="st0" d="M1165.7,214.6c13.3-23.8,31.8-42.2,55.5-55.2c23.6-12.9,50.4-19.4,80.3-19.4c29.9,0,56.6,6.5,80,19.4
			c23.4,12.9,41.8,31.3,55.2,55.2c13.3,23.9,20,51.5,20,83.1c0,31.9-6.7,59.8-20,83.7c-13.3,23.9-31.7,42.2-55.2,55.2
			c-23.4,12.9-50.1,19.4-80,19.4c-29.9,0-56.7-6.5-80.3-19.4c-23.6-12.9-42.1-31.4-55.5-55.5c-13.3-24-20-51.8-20-83.4
			C1145.7,266.1,1152.4,238.5,1165.7,214.6z M1237,370.7c16.4,18,37.9,27,64.6,27c26.3,0,47.6-9,64-27c16.4-18,24.6-42.3,24.6-73.1
			c0-30.7-8.2-55-24.6-72.8c-16.4-17.8-37.7-26.7-64-26.7c-26.7,0-48.2,9-64.6,27c-16.4,18-24.6,42.1-24.6,72.4
			C1212.4,328.4,1220.6,352.7,1237,370.7z"/>
	</g>
</g>
</svg>
